<svg width="56" height="56" viewBox="0 0 56 56" fill="none" xmlns="http://www.w3.org/2000/svg">
<rect width="56" height="56" rx="16" fill="#F5F7FD"/>
<path d="M25.3335 25.3333H18.9816C16.9993 25.3333 15.71 27.4195 16.5965 29.1926L21.2632 38.5259C21.7149 39.4293 22.6382 40 23.6483 40H29.0053C29.2233 40 29.4405 39.9733 29.652 39.9204L34.6669 38.6667M25.3335 25.3333V18.6667C25.3335 17.1939 26.5274 16 28.0002 16H28.1275C28.7936 16 29.3335 16.54 29.3335 17.206C29.3335 18.1584 29.6155 19.0895 30.1438 19.882L34.6669 26.6667V38.6667M25.3335 25.3333H28.0002M34.6669 38.6667H37.3335C38.8063 38.6667 40.0002 37.4728 40.0002 36V28C40.0002 26.5272 38.8063 25.3333 37.3335 25.3333H34.0002" stroke="#EAB308" stroke-width="2" stroke-linecap="round" stroke-linejoin="round"/>
</svg>
