<svg width="160" height="160" viewBox="0 0 160 160" fill="none" xmlns="http://www.w3.org/2000/svg">
<path d="M80 4.41208C80 1.97536 81.9772 -0.0126791 84.4102 0.121598C101.119 1.04381 117.161 7.18787 130.241 17.7437C144.468 29.2253 154.334 45.2337 158.195 63.1037C162.057 80.9738 159.681 99.6273 151.463 115.959C143.245 132.29 129.682 145.314 113.03 152.863C96.3788 160.411 77.6443 162.029 59.9456 157.446C42.2469 152.863 26.6518 142.356 15.7568 127.674C4.86185 112.993 -0.675792 95.0222 0.0658515 76.7547C0.747694 59.9603 6.69918 43.8463 17.0178 30.672C18.5203 28.7536 21.3186 28.5769 23.1512 30.1828C24.9839 31.7888 25.1556 34.5684 23.6662 36.497C14.6696 48.1466 9.48278 62.3335 8.88275 77.1127C8.22291 93.3652 13.1497 109.353 22.843 122.416C32.5363 135.478 46.4111 144.826 62.1576 148.903C77.9041 152.981 94.5722 151.542 109.387 144.826C124.202 138.11 136.269 126.523 143.581 111.992C150.892 97.4624 153.006 80.8664 149.57 64.9674C146.135 49.0685 137.357 34.8258 124.699 24.6107C113.189 15.3215 99.1003 9.87241 84.4094 8.96082C81.9774 8.80991 80 6.8488 80 4.41208Z" fill="url(#paint0_linear_45_6882)"/>
<defs>
<linearGradient id="paint0_linear_45_6882" x1="80" y1="160" x2="80" y2="9.5399e-07" gradientUnits="userSpaceOnUse">
<stop stop-color="#00CDAC"/>
<stop offset="1" stop-color="#8DDAD5"/>
</linearGradient>
</defs>
</svg>
