<svg width="56" height="56" viewBox="0 0 56 56" fill="none" xmlns="http://www.w3.org/2000/svg">
<rect width="56" height="56" rx="16" fill="#F5F7FD"/>
<path d="M17.3335 18.6667C17.3335 17.9303 17.9304 17.3333 18.6668 17.3333H37.3335C38.0699 17.3333 38.6668 17.9303 38.6668 18.6667V21.3333C38.6668 22.0697 38.0699 22.6667 37.3335 22.6667H18.6668C17.9304 22.6667 17.3335 22.0697 17.3335 21.3333V18.6667Z" stroke="#EAB308" stroke-width="2" stroke-linecap="round" stroke-linejoin="round"/>
<path d="M17.3335 29.3333C17.3335 28.597 17.9304 28 18.6668 28H26.6668C27.4032 28 28.0002 28.597 28.0002 29.3333V37.3333C28.0002 38.0697 27.4032 38.6667 26.6668 38.6667H18.6668C17.9304 38.6667 17.3335 38.0697 17.3335 37.3333V29.3333Z" stroke="#EAB308" stroke-width="2" stroke-linecap="round" stroke-linejoin="round"/>
<path d="M33.3335 29.3333C33.3335 28.597 33.9304 28 34.6668 28H37.3335C38.0699 28 38.6668 28.597 38.6668 29.3333V37.3333C38.6668 38.0697 38.0699 38.6667 37.3335 38.6667H34.6668C33.9304 38.6667 33.3335 38.0697 33.3335 37.3333V29.3333Z" stroke="#EAB308" stroke-width="2" stroke-linecap="round" stroke-linejoin="round"/>
</svg>
