<svg width="74" height="44" viewBox="0 0 74 44" fill="none" xmlns="http://www.w3.org/2000/svg">
<mask id="mask0_3216_6355" style="mask-type:luminance" maskUnits="userSpaceOnUse" x="0" y="0" width="74" height="44">
<path d="M73.0786 0L0 0L0 44L73.0786 44V0Z" fill="white"/>
</mask>
<g mask="url(#mask0_3216_6355)">
<path d="M68.0605 14.7498L58.3677 5.05697C58.3617 5.05098 58.3552 5.04545 58.3492 5.03946C58.3432 5.03348 58.3361 5.02541 58.3292 5.0185C55.5007 2.19025 51.7717 0.440581 47.7886 0.0726679C43.8056 -0.295245 39.8195 0.741781 36.5206 3.00405C33.2217 0.741781 29.2356 -0.295245 25.2526 0.0726679C21.2695 0.440581 17.5406 2.19025 14.712 5.0185L5.01918 14.7111C1.99925 17.7318 0.21639 21.7716 0.0200747 26.0383C-0.17624 30.3052 1.22814 34.4917 3.95794 37.777C6.68775 41.0621 10.5461 43.2094 14.7768 43.7978C19.0075 44.3861 23.3054 43.3732 26.828 40.9575C29.6802 42.9134 33.0575 43.9606 36.5158 43.9618C39.9743 43.9627 43.352 42.9173 46.2054 40.963C49.7238 43.3937 54.0241 44.4206 58.2612 43.8424C62.4984 43.264 66.366 41.1224 69.1047 37.8378C71.8432 34.5532 73.2543 30.3632 73.0613 26.0913C72.868 21.8192 71.0844 17.7738 68.0605 14.7498ZM21.5646 36.1037C19.3765 37.1488 16.8893 37.3865 14.5428 36.7752C12.1962 36.164 10.1413 34.7427 8.7412 32.7629C7.34113 30.783 6.686 28.3721 6.89164 25.9559C7.09725 23.5397 8.15039 21.274 9.86492 19.5592L19.5575 9.86631C21.062 8.36385 22.9947 7.36392 25.0902 7.0039C27.1857 6.64388 29.3414 6.94139 31.2609 7.85555L24.4047 14.7111C21.7753 17.3268 20.0732 20.7303 19.5575 24.4031C19.444 25.2061 19.3867 26.016 19.3862 26.8271C19.3793 30.0334 20.2785 33.1763 21.9799 35.8941C21.8427 35.9673 21.7042 36.0369 21.5646 36.103V36.1037ZM43.7901 34.0973C41.86 36.0148 39.2485 37.0887 36.5277 37.0843C33.807 37.0797 31.1992 35.9968 29.2753 34.0731C27.3516 32.1492 26.2687 29.5413 26.2641 26.8206C26.2597 24.0999 27.3336 21.4885 29.2511 19.5582L36.5206 12.2887L43.7901 19.5582C45.7147 21.4877 46.7956 24.1018 46.7956 26.8271C46.7956 29.5522 45.7147 32.1662 43.7901 34.0957V34.0973ZM63.2141 34.1358C61.7025 35.6434 59.7597 36.6439 57.6545 36.9988C55.5493 37.3538 53.3858 37.0456 51.4635 36.1168C51.3253 36.0502 51.1884 35.9804 51.0532 35.9074C52.7599 33.1867 53.662 30.0387 53.6551 26.8271C53.6544 26.016 53.5972 25.2061 53.4837 24.4031C52.9681 20.7303 51.2658 17.3268 48.6366 14.7111L41.8222 7.89701L41.7837 7.85854C43.7024 6.9448 45.8569 6.64709 47.9515 7.00625C50.0461 7.36545 51.9781 8.36392 53.4828 9.8647C53.4897 9.87161 53.4961 9.87898 53.5028 9.88589C53.5095 9.8928 53.5152 9.89741 53.5212 9.9034L63.1687 19.5509L63.2148 19.5969C65.1426 21.525 66.2257 24.14 66.2257 26.8665C66.2257 29.5929 65.1426 32.2079 63.2148 34.136L63.2141 34.1358Z" fill="url(#paint0_linear_3216_6355)"/>
</g>
<defs>
<linearGradient id="paint0_linear_3216_6355" x1="0.00195299" y1="22" x2="73.0788" y2="22" gradientUnits="userSpaceOnUse">
<stop stop-color="#F158C0"/>
<stop offset="1" stop-color="#6E49F5"/>
</linearGradient>
</defs>
</svg>
