<svg width="56" height="56" viewBox="0 0 56 56" fill="none" xmlns="http://www.w3.org/2000/svg">
<rect width="56" height="56" rx="16" fill="#F5F7FD"/>
<path d="M24 28L26.6667 30.6667L32 25.3333M39.4905 19.9791C39.2177 19.9929 38.943 19.9999 38.6667 19.9999C34.5687 19.9999 30.8306 18.4594 27.9999 15.9258C25.1692 18.4593 21.4312 19.9998 17.3333 19.9998C17.057 19.9998 16.7824 19.9928 16.5095 19.9789C16.1769 21.2638 16 22.6112 16 24C16 31.4554 21.0991 37.7198 28 39.4959C34.9009 37.7198 40 31.4554 40 24C40 22.6113 39.8231 21.2639 39.4905 19.9791Z" stroke="#EAB308" stroke-width="2" stroke-linecap="round" stroke-linejoin="round"/>
</svg>
